<svg width="25" height="24" viewBox="0 0 25 24" fill="none" xmlns="http://www.w3.org/2000/svg">
<path d="M13.157 13.011C13.194 12.344 13.52 11.757 14.013 11.34C14.5306 10.9094 15.1837 10.6757 15.857 10.68C16.567 10.68 17.217 10.93 17.702 11.34C18.194 11.757 18.521 12.345 18.558 13.011C18.596 13.697 18.321 14.334 17.837 14.806C17.3042 15.3143 16.5943 15.5948 15.858 15.588C15.121 15.5952 14.4103 15.3147 13.877 14.806C13.394 14.334 13.118 13.697 13.157 13.011Z" fill="#EEEEEE"/>
<path d="M8.854 14.3609C8.859 14.6209 8.943 15.1279 9.067 15.5249C9.33717 16.3788 9.79038 17.1633 10.395 17.8239C11.0431 18.5372 11.8348 19.1053 12.718 19.4909C13.6787 19.9148 14.718 20.1311 15.768 20.1259C16.819 20.1272 17.8585 19.9075 18.819 19.4809C19.701 19.0906 20.4917 18.5201 21.14 17.8059C21.7434 17.1432 22.1958 16.3575 22.466 15.5029C22.5979 15.0855 22.6818 14.6544 22.716 14.2179C22.8103 12.956 22.4992 11.6968 21.828 10.6239C21.4184 9.96892 20.8952 9.39222 20.283 8.92095L20.284 8.91995L14.035 4.12095L14.019 4.10695C13.608 3.79295 12.918 3.79395 12.468 4.10895C12.011 4.42795 11.96 4.95495 12.364 5.28895L12.363 5.28995L14.969 7.41095L7.026 7.41995H7.014C6.358 7.41995 5.727 7.85195 5.602 8.39595C5.474 8.95095 5.92 9.41095 6.603 9.41295L6.602 9.41595L10.629 9.40795L3.441 14.9239L3.414 14.9449C2.737 15.4639 2.518 16.3269 2.944 16.8739C3.378 17.4299 4.298 17.4299 4.984 16.8759L8.906 13.6669C8.907 13.6669 8.85 14.0999 8.854 14.3609V14.3609ZM18.932 15.8109C18.124 16.6349 16.994 17.1019 15.769 17.1039C14.543 17.1059 13.413 16.6429 12.604 15.8209C12.2216 15.4381 11.9268 14.9768 11.74 14.4689C11.5636 13.986 11.4956 13.4701 11.541 12.9579C11.585 12.4529 11.734 11.9709 11.975 11.5359C12.211 11.1069 12.537 10.7209 12.937 10.3919C13.7393 9.74678 14.7395 9.39786 15.769 9.40395C16.7975 9.39567 17.7976 9.74173 18.601 10.3839C19 10.7099 19.326 11.0949 19.562 11.5229C19.802 11.9589 19.952 12.4389 19.996 12.9439C20.0411 13.456 19.9735 13.9718 19.798 14.4549C19.6093 14.9635 19.314 15.4259 18.932 15.8109V15.8109Z" fill="#EEEEEE"/>
</svg>
