<svg width="24" height="24" viewBox="0 0 24 24" fill="none" xmlns="http://www.w3.org/2000/svg">
<path d="M7.61755 0H10.1956V1.078H8.69555V2.156H10.1956V3.234H7.61755V0ZM10.7106 0H13.2896V0.938H11.7896V1.125H13.2896V3.281H10.7106V2.297H12.2106V2.109H10.7106V0ZM13.8056 0H16.3826V0.938H14.8826V1.125H16.3826V3.281H13.8056V2.297H15.3056V2.109H13.8056V0Z" fill="#EEEEEE"/>
<path fill-rule="evenodd" clip-rule="evenodd" d="M11.991 23.564L5.047 21.636L3 4.28101H21L18.954 21.634L11.991 23.564ZM7.047 12.137L7.238 14.265H14.615L14.368 17.025L11.994 17.667H11.992L9.622 17.027L9.47 15.33H7.333L7.631 18.672L11.991 19.882L16.358 18.672L16.89 12.708L16.942 12.137L17.326 7.82801H6.664L6.858 9.95701H14.994L14.8 12.137H7.047V12.137Z" fill="#EEEEEE"/>
</svg>
