<svg width="24" height="24" viewBox="0 0 24 24" fill="none" xmlns="http://www.w3.org/2000/svg">
<path d="M15.332 8.668C16.1982 8.64201 17.0203 8.27961 17.6239 7.65767C18.2274 7.03573 18.565 6.20316 18.565 5.3365C18.565 4.46985 18.2274 3.63728 17.6239 3.01534C17.0203 2.3934 16.1982 2.031 15.332 2.005H8.66797C7.80171 2.031 6.97963 2.3934 6.37608 3.01534C5.77252 3.63728 5.43495 4.46985 5.43495 5.3365C5.43495 6.20316 5.77252 7.03573 6.37608 7.65767C6.97963 8.27961 7.80171 8.64201 8.66797 8.668C7.79413 8.68314 6.9612 9.0409 6.34859 9.66422C5.73598 10.2875 5.3927 11.1265 5.3927 12.0005C5.3927 12.8745 5.73598 13.7135 6.34859 14.3368C6.9612 14.9601 7.79413 15.3179 8.66797 15.333C7.7984 15.3543 6.97162 15.7147 6.36413 16.3373C5.75665 16.9598 5.41661 17.7952 5.41661 18.665C5.41661 19.5348 5.75665 20.3702 6.36413 20.9927C6.97162 21.6153 7.7984 21.9757 8.66797 21.997C9.55168 21.9965 10.399 21.6451 11.0238 21.0201C11.6486 20.3952 11.9997 19.5477 12 18.664V8.668H15.332Z" fill="#EEEEEE"/>
<path d="M15.332 15.332C17.1722 15.332 18.664 13.8402 18.664 12C18.664 10.1598 17.1722 8.66797 15.332 8.66797C13.4918 8.66797 12 10.1598 12 12C12 13.8402 13.4918 15.332 15.332 15.332Z" fill="#EEEEEE"/>
</svg>
