<svg width="24" height="24" viewBox="0 0 24 24" fill="none" xmlns="http://www.w3.org/2000/svg">
<path d="M5.23901 15.063L7.21001 2.38098C7.22448 2.28706 7.26811 2.20007 7.33475 2.13232C7.40138 2.06456 7.48763 2.01948 7.58129 2.00344C7.67495 1.98741 7.77129 2.00124 7.85666 2.04297C7.94204 2.0847 8.01212 2.15222 8.05701 2.23598L10.177 6.21498L5.23901 15.063ZM19.24 18.14L17.363 6.46898C17.3489 6.3873 17.3127 6.31104 17.2583 6.24849C17.2039 6.18593 17.1334 6.13946 17.0545 6.11411C16.9755 6.08877 16.8912 6.08551 16.8105 6.1047C16.7299 6.12389 16.6561 6.1648 16.597 6.22298L4.76001 18.14L11.31 21.831C11.721 22.061 12.222 22.061 12.633 21.831L19.24 18.14ZM13.917 7.95498L12.4 5.05198C12.3617 4.9791 12.3041 4.91809 12.2336 4.87552C12.1631 4.83296 12.0824 4.81046 12 4.81046C11.9177 4.81046 11.8369 4.83296 11.7664 4.87552C11.6959 4.91809 11.6384 4.9791 11.6 5.05198L4.93901 16.989L13.917 7.95498Z" fill="#EEEEEE"/>
</svg>
