<svg width="24" height="25" viewBox="0 0 24 25" fill="none" xmlns="http://www.w3.org/2000/svg">
<path d="M22.2503 11.82C22.2494 11.1314 22.0206 10.4624 21.5994 9.91766C21.1782 9.37287 20.5885 8.98293 19.9223 8.80875L22.9103 0H8.10526L11.1023 8.84025C10.4556 9.0282 9.88724 9.42052 9.48218 9.95847C9.07712 10.4964 8.85718 11.1511 8.85526 11.8245C8.85526 12.8677 9.37501 13.7932 10.1685 14.3632C9.85085 14.8129 9.48823 15.2291 9.08626 15.6052C8.34628 16.3092 7.48116 16.8686 6.53551 17.2545C5.69926 16.6913 5.34076 15.6953 5.66476 14.8095C9.06301 13.7505 8.31301 8.74275 4.75876 8.72775C3.93325 8.72835 3.14173 9.05654 2.55802 9.64026C1.9743 10.224 1.6461 11.0155 1.64551 11.841C1.64551 12.6893 1.98826 13.4662 2.54776 14.0242C2.49676 14.118 2.44951 14.22 2.39851 14.3212C1.93426 15.282 1.40626 16.3642 1.20376 17.5792C0.801757 20.013 1.46176 21.966 3.05551 23.0715C3.91704 23.6795 4.94631 24.0045 6.00076 24.0015C7.82476 24.0015 9.68101 23.0835 11.4735 22.1925C12.7545 21.5633 14.0745 20.9032 15.3713 20.5837C15.852 20.4667 16.3523 20.397 16.8795 20.3175C17.9498 20.1653 19.0553 20.0055 20.0475 19.4272C20.615 19.1029 21.1046 18.6582 21.4818 18.1244C21.859 17.5905 22.1146 16.9805 22.2308 16.3373C22.396 15.3573 22.24 14.3503 21.786 13.4662C22.0868 12.9855 22.251 12.4275 22.251 11.8215L22.2503 11.82ZM20.895 11.82C20.8944 12.2839 20.7099 12.7286 20.3819 13.0566C20.0538 13.3846 19.6091 13.5692 19.1453 13.5698C17.4885 13.566 16.7625 11.4765 18.0623 10.4445L18.066 10.4377C18.1253 10.395 18.1883 10.3515 18.246 10.3117C18.246 10.3117 18.258 10.3117 18.258 10.305C18.285 10.2892 18.312 10.2697 18.3398 10.254C18.348 10.254 18.3518 10.2502 18.3585 10.2502C18.3863 10.2345 18.4215 10.2232 18.4568 10.2075C18.492 10.1917 18.5265 10.1805 18.555 10.1648C18.5618 10.1648 18.5663 10.161 18.5738 10.161C18.6015 10.1528 18.633 10.1378 18.66 10.134C18.6638 10.134 18.6803 10.1258 18.6878 10.1258C18.723 10.1175 18.75 10.11 18.7845 10.1055H18.7883L18.894 10.0822C18.9008 10.0822 18.9128 10.0823 18.921 10.074C18.948 10.074 18.9758 10.0657 19.0073 10.0657H19.038C19.0733 10.0657 19.1078 10.062 19.1513 10.062H19.2413C19.269 10.062 19.2923 10.062 19.3193 10.0657H19.3313C19.386 10.074 19.4445 10.0815 19.4993 10.098C19.8939 10.1817 20.2478 10.3984 20.5018 10.7119C20.7557 11.0254 20.8943 11.4166 20.8943 11.82H20.895ZM10.0433 1.39125H20.973L18.465 8.78925C18.3593 8.8095 18.258 8.844 18.1523 8.87925L15.5123 3.4965L12.8633 8.84475C12.7558 8.81275 12.6463 8.78795 12.5355 8.7705L10.0433 1.39125ZM15.012 11.2148C14.8838 10.5734 14.5553 9.98935 14.0738 9.54675L15.5115 6.645L16.9643 9.609C16.52 10.0451 16.2167 10.6045 16.0935 11.2148H15.012ZM11.5313 10.1168C11.5635 10.1079 11.5963 10.1017 11.6295 10.098H11.6483C11.676 10.0897 11.703 10.0897 11.73 10.0822H11.7578C11.7848 10.0822 11.8088 10.074 11.8358 10.074H12.105C12.1328 10.074 12.156 10.0822 12.1763 10.0822C12.1913 10.0822 12.195 10.0823 12.2115 10.0905C12.2385 10.0988 12.2588 10.0988 12.2858 10.1025C12.294 10.1025 12.3015 10.1025 12.3165 10.1093L12.4103 10.1295H12.4185C12.4455 10.1377 12.4778 10.1452 12.5048 10.1602C12.5085 10.1602 12.5168 10.164 12.5318 10.164C12.552 10.1723 12.579 10.1798 12.603 10.191C12.606 10.191 12.6143 10.1992 12.6218 10.1992C12.6488 10.215 12.6765 10.2232 12.7035 10.2345H12.7118C12.7443 10.2465 12.7747 10.2637 12.8018 10.2855H12.81C12.837 10.2975 12.864 10.3163 12.8918 10.3328C12.8985 10.3328 12.8985 10.341 12.9068 10.341C12.9345 10.353 12.954 10.3762 12.981 10.3882L12.9893 10.3965C13.071 10.4588 13.149 10.5285 13.2285 10.5998L13.2315 10.6035C13.5443 10.9312 13.7168 11.3648 13.7123 11.8133C13.638 14.0715 10.2863 14.0715 10.212 11.8133C10.2083 11.013 10.755 10.3133 11.532 10.1183L11.5313 10.1168ZM4.69126 10.0657C5.15592 10.0657 5.60154 10.2503 5.93011 10.5789C6.25867 10.9075 6.44326 11.3531 6.44326 11.8177C6.44326 12.2824 6.25867 12.728 5.93011 13.0566C5.60154 13.3852 5.15592 13.5698 4.69126 13.5698C3.72751 13.5698 2.94151 12.7845 2.94151 11.82C2.94151 10.8555 3.72751 10.0657 4.69126 10.0657V10.0657ZM20.8553 16.0942C20.7753 16.5383 20.599 16.9595 20.3387 17.328C20.0783 17.6966 19.7403 18.0035 19.3485 18.2272C18.5903 18.6645 17.6565 18.8055 16.6808 18.9412C16.1292 19.0117 15.5816 19.1096 15.0398 19.2345C13.5945 19.5907 12.204 20.2815 10.8555 20.9498C9.13351 21.8055 7.50826 22.6095 6.00076 22.6095C5.22742 22.6144 4.47247 22.3739 3.84451 21.9225C2.31676 20.8672 2.39176 18.8873 2.57476 17.8013C2.73901 16.785 3.20401 15.8363 3.64876 14.9265C3.68101 14.8718 3.69976 14.8207 3.72751 14.7667C3.87976 14.8207 4.03951 14.8635 4.20751 14.892C3.94126 16.3643 4.69126 17.8882 6.15226 18.6382L6.41401 18.774L6.69901 18.6727C7.91401 18.2385 9.04276 17.5395 10.035 16.6027C10.5851 16.0909 11.0704 15.5136 11.4803 14.8837C12.2424 15.0007 13.0208 14.831 13.6652 14.4076C14.3095 13.9841 14.7741 13.3369 14.9693 12.591H16.137C16.3097 13.2575 16.6988 13.8477 17.2433 14.2691C17.7878 14.6905 18.4568 14.9191 19.1453 14.919C19.7235 14.919 20.2583 14.7593 20.715 14.4893C20.895 15.009 20.9528 15.552 20.8553 16.095V16.0942Z" fill="#EEEEEE"/>
</svg>
