<svg width="24" height="24" viewBox="0 0 24 24" fill="none" xmlns="http://www.w3.org/2000/svg">
<path d="M17.1795 9.51973C15.918 3.95698 12.9375 2.13298 12.6173 1.43398C12.2655 0.938232 11.8868 0.000732422 11.8868 0.000732422C11.883 0.0202324 11.883 0.0322324 11.8793 0.0517324V0.0637324C11.8793 0.0794824 11.8755 0.0869824 11.8755 0.102732V0.118482H11.8718V0.168732H11.868C11.868 0.176232 11.868 0.188232 11.8643 0.191982V0.215232C11.8643 0.222732 11.8643 0.230982 11.8605 0.234732V0.254232C11.8605 0.266232 11.8605 0.277482 11.8568 0.285732V0.289482C11.8561 0.306702 11.8536 0.323801 11.8493 0.340482V0.347982C11.8455 0.351732 11.8455 0.355482 11.8455 0.359982V0.375732H11.8418V0.398982H11.838V0.414732H11.8305V0.437982H11.8268V0.457482H11.823V0.473232H11.8193V0.488982H11.8155V0.504732H11.8118V0.520482H11.808V0.532482H11.8043V0.548232H11.8005V0.563982H11.7968C11.793 0.563982 11.793 0.567732 11.793 0.567732V0.575232L11.7893 0.582732C11.7893 0.590232 11.7855 0.598482 11.7818 0.605982C11.778 0.609732 11.778 0.609732 11.778 0.613482V0.620982H11.7743V0.628482H11.7668V0.647982H11.7593V0.659982H11.7555V0.663732H11.7518V0.671232H11.748V0.683232H11.7443V0.690732H11.7368V0.702732H11.733V0.710232H11.7293V0.717732H11.7255V0.729732H11.7218V0.737232H11.718V0.740982H11.7143V0.748482H11.7068V0.760482H11.703V0.764232H11.6993V0.771732H11.6955V0.783732H11.6918V0.787482H11.688V0.794982H11.6843V0.798732H11.6805V0.810732H11.673V0.814482H11.6693V0.821982H11.6655V0.825732H11.6618V0.833232H11.658V0.840732C11.6543 0.840732 11.6543 0.844482 11.6543 0.844482V0.848232H11.6505L11.6385 0.867732C11.6385 0.867732 11.631 0.875232 11.631 0.879732C11.6273 0.879732 11.6273 0.883482 11.6273 0.883482V0.887232H11.6235V0.890982H11.6198V0.898482H11.6123V0.902232H11.6085V0.905982H11.6048V0.917232H11.601V0.920982H11.5973V0.924732H11.5935V0.932232H11.5898V0.924732H11.5823V0.928482H11.5785V0.935982H11.5748V0.943482H11.571V0.947232H11.5673V0.950982H11.5635V0.954732H11.5598V0.962232H11.5523V0.965982H11.5485V0.973482H11.5448V0.977232H11.541V0.980982H11.5373V0.992982H11.5335V0.996732H11.5298V1.00048H11.526V1.00423H11.5223V1.00798H11.5148V1.01548H11.511V1.01923H11.5073V1.02298H11.5035V1.03048H11.4998V1.03423H11.4923V1.03798H11.4885V1.04173H11.4848V1.04923H11.481V1.05673H11.4773V1.06048H11.4735V1.06423H11.466V1.06798H11.4623V1.07173H11.4585V1.07923H11.4548V1.08298H11.451V1.09048H11.4473V1.09423H11.4435V1.09798H11.4398V1.10173H11.436V1.10548H11.4285V1.10923C11.4248 1.10923 11.4248 1.11298 11.4248 1.11298L11.421 1.11673L11.4173 1.12048V1.12798H11.4135V1.13173H11.4098V1.13548H11.406V1.13923H11.4023L11.3948 1.14673V1.15048C11.3873 1.15423 11.3873 1.15798 11.379 1.16623C11.379 1.16623 11.3715 1.17373 11.367 1.17373C11.355 1.18123 11.34 1.19698 11.328 1.20898C11.3205 1.21273 11.3123 1.22098 11.3048 1.22473C11.289 1.24048 11.2733 1.25173 11.2575 1.26373C11.2343 1.28698 11.2103 1.30273 11.1833 1.32598H11.1795L10.9958 1.48648H10.992C10.824 1.63498 10.6245 1.82623 10.398 2.05273L10.3785 2.07223C9.01878 3.47848 6.87453 6.41173 6.65178 11.1502C6.62853 11.541 6.63228 11.9235 6.65553 12.2947V12.3022C6.76503 14.1697 7.35078 15.7635 8.08503 17.0602C8.37378 17.5762 8.69028 18.045 9.01053 18.4665C10.1123 19.92 11.2373 20.7832 11.5223 20.994C11.964 22.0132 11.9243 23.7712 11.9243 23.7712L12.5685 23.9857C12.5685 23.9857 12.4358 22.2862 12.6195 21.462C12.678 21.2077 12.8108 20.9895 12.9675 20.802C13.077 20.7277 13.3898 20.5012 13.7648 20.1577C13.7843 20.1382 13.7963 20.1225 13.812 20.103C15.3315 18.6847 18.1718 15.1927 17.199 9.50548L17.1795 9.51973Z" fill="#EEEEEE"/>
</svg>
