<svg width="24" height="25" viewBox="0 0 24 25" fill="none" xmlns="http://www.w3.org/2000/svg">
<path d="M11.214 0.00600293C11.162 0.0110029 10.998 0.0280029 10.85 0.0390029C7.442 0.347003 4.25 2.186 2.226 5.013C1.1083 6.56473 0.38172 8.36334 0.108 10.256C0.012 10.916 0 11.11 0 12.004C0 12.898 0.012 13.093 0.108 13.752C0.76 18.259 3.968 22.045 8.317 23.448C9.096 23.699 9.917 23.87 10.85 23.974C11.214 24.014 12.786 24.014 13.15 23.974C14.761 23.795 16.127 23.396 17.473 22.709C17.68 22.604 17.72 22.575 17.692 22.552C17.0336 21.6837 16.3819 20.8104 15.737 19.932L13.818 17.339L11.414 13.78C10.6141 12.5896 9.80677 11.4043 8.992 10.224C8.983 10.221 8.974 11.802 8.969 13.734C8.962 17.114 8.959 17.25 8.917 17.33C8.87603 17.4234 8.80294 17.4989 8.711 17.543C8.636 17.581 8.571 17.588 8.216 17.588H7.81L7.702 17.52C7.63517 17.4778 7.58094 17.4184 7.545 17.348L7.495 17.243L7.5 12.539L7.507 7.833L7.58 7.741C7.62915 7.68349 7.68805 7.63508 7.754 7.598C7.85 7.551 7.887 7.547 8.294 7.547C8.772 7.547 8.852 7.565 8.976 7.701C9.011 7.739 10.313 9.701 11.871 12.063L16.605 19.235L18.505 22.113L18.602 22.05C19.5164 21.4421 20.3454 20.7146 21.067 19.887C22.5792 18.1563 23.56 16.0262 23.892 13.752C23.988 13.092 24 12.898 24 12.004C24 11.11 23.988 10.916 23.892 10.256C23.24 5.75 20.032 1.963 15.683 0.560003C14.8702 0.301572 14.0332 0.12634 13.185 0.0370029C12.959 0.0130029 11.409 -0.0129971 11.215 0.00700293L11.214 0.00600293ZM16.127 7.266C16.1828 7.29409 16.2324 7.33294 16.2731 7.38031C16.3138 7.42768 16.3447 7.48263 16.364 7.542C16.382 7.602 16.387 8.907 16.382 11.847L16.375 16.065L15.632 14.925L14.886 13.785V10.719C14.886 8.736 14.895 7.622 14.909 7.568C14.9256 7.50554 14.9548 7.4471 14.9947 7.39623C15.0345 7.34535 15.0843 7.30309 15.141 7.272C15.238 7.222 15.273 7.218 15.641 7.218C15.988 7.218 16.049 7.223 16.127 7.265V7.266Z" fill="#EEEEEE"/>
</svg>
