<svg width="25" height="24" viewBox="0 0 25 24" fill="none" xmlns="http://www.w3.org/2000/svg">
<path d="M12.7084 23.9569C19.3239 23.9569 24.6869 18.5939 24.6869 11.9784C24.6869 5.36293 19.3239 0 12.7084 0C6.09291 0 0.72998 5.36293 0.72998 11.9784C0.72998 18.5939 6.09291 23.9569 12.7084 23.9569Z" fill="white"/>
<path d="M7.65328 7.68447C7.59581 7.69694 7.54931 7.72704 7.50947 7.78141C7.46822 7.84029 7.45369 7.93732 7.47478 8.00135C7.49269 8.05732 7.5901 8.17085 7.69697 8.24791C7.557 8.43233 7.4205 8.61936 7.28756 8.80891C6.56972 9.84879 6.14888 10.8002 6.09544 11.486C6.06656 11.8568 6.13856 12.116 6.30919 12.3176C6.43547 12.4662 6.58331 12.5507 6.82135 12.6013C7.01663 12.6428 7.3156 12.6408 7.61728 12.5947C7.42763 12.8668 7.15678 13.284 7.01719 13.5213C6.78675 13.9158 6.55069 14.4197 6.462 14.7081C6.30572 15.2108 6.28575 15.6237 6.38981 16.0175C6.45338 16.2596 6.55575 16.4538 6.69506 16.603C6.83681 16.7549 7.0171 16.861 7.2376 16.9208C7.59872 17.0184 8.12888 16.9907 8.79834 16.833C8.93944 16.8002 9.156 16.7397 9.31753 16.6918C9.17353 17.1955 9.18956 17.6554 9.35119 17.9854C9.40341 18.0916 9.54947 18.2704 9.63684 18.3363C10.159 18.7262 11.2568 18.7115 12.7298 18.2496C12.8479 18.2128 13.1809 18.0977 13.3467 18.0374C13.4602 18.1888 13.5658 18.2484 13.8108 18.2778C13.9703 18.2952 14.101 18.2696 14.225 18.1983C14.2815 18.1654 14.315 18.1332 14.3339 18.1031C14.3648 18.0541 14.3705 18.0036 14.3491 17.9433C14.3286 17.8867 14.299 17.8531 14.246 17.8293C14.2155 17.8156 14.1709 17.8058 14.0984 17.8003C14.0419 17.7965 14.0219 17.7943 13.9918 17.7729L14.0012 17.765C14.259 17.656 14.8159 17.3778 15.1595 17.1863C16.4162 16.4853 17.759 15.4972 18.6533 14.615C19.4636 13.8166 20.2489 12.8201 20.4111 12.3932C20.4603 12.2652 20.4738 12.1323 20.453 12.0287C20.4354 11.9478 20.4258 11.9258 20.3478 11.8327C20.2653 11.7345 20.2479 11.7252 20.1718 11.6951C19.9185 11.5953 19.527 11.7052 18.7557 12.1763C17.7689 12.7788 16.3045 13.8974 15.2728 14.8383C14.2566 15.7642 13.5889 16.5734 13.3413 17.1671C13.3115 17.2386 13.3123 17.2721 13.2968 17.2805C13.2809 17.2893 13.1437 17.3428 12.9927 17.4022C12.1609 17.7251 11.436 17.9103 10.8946 17.934C10.7453 17.9408 10.5068 17.9247 10.389 17.8993C10.2903 17.8782 10.169 17.8304 10.1229 17.7868C10.0658 17.7334 10.0433 17.6441 10.0394 17.5316C10.0344 17.3898 10.063 17.2127 10.1228 17.0068C10.1638 16.8677 10.3077 16.508 10.3794 16.3683L10.5478 16.2775C11.4553 15.9343 12.4823 15.4373 13.444 14.8763C14.7432 14.1183 16.2384 13.0673 17.5774 11.9684C18.3752 11.3135 18.8041 10.9006 19.2107 10.3981C19.5282 10.0059 19.7854 9.56407 19.844 9.31788C19.8863 9.14285 19.8807 8.98619 19.8343 8.854C19.7856 8.71479 19.6918 8.60069 19.5544 8.52016C19.1964 8.31035 18.5479 8.39304 17.6713 8.78829C16.8424 9.16216 15.8061 9.80641 14.6354 10.6894C13.9358 11.2158 12.9565 12.0303 12.439 12.5152C11.1182 13.754 10.2134 14.8314 9.71166 15.759L9.67763 15.8223C9.23372 15.9892 8.54822 16.1831 8.20481 16.2414C7.91869 16.2893 7.64241 16.3022 7.48013 16.2702C7.37972 16.2507 7.30322 16.2186 7.24716 16.161C7.18885 16.1012 7.15341 16.0162 7.12753 15.9032C7.08806 15.7259 7.09978 15.4344 7.15266 15.2188C7.31597 14.5538 7.85447 13.599 8.67656 12.5035L8.85488 12.2665L9.039 12.1953C10.257 11.7275 11.7693 10.8862 13.1104 9.92875C13.8538 9.39766 14.653 8.73841 15.1961 8.20741C15.6277 7.78563 15.9726 7.39694 16.2391 7.03357C16.4738 6.712 16.6215 6.44032 16.688 6.20969C16.762 5.95254 16.7389 5.7416 16.6325 5.56329C16.5512 5.42697 16.4277 5.33547 16.2712 5.29272C16.1281 5.25363 15.9552 5.25635 15.7615 5.30819C15.1994 5.46044 14.3616 5.96332 13.164 6.87616C12.8663 7.10444 11.8841 7.9285 11.5909 8.19616C10.3674 9.31816 9.2835 10.4645 8.36541 11.606L8.19188 11.8222L8.09456 11.8511C7.81191 11.9344 7.48735 11.9959 7.25756 12.0098C7.12313 12.0179 6.94519 11.9991 6.86766 11.9639C6.82678 11.9459 6.82022 11.9409 6.79641 11.9085C6.75441 11.8505 6.74456 11.795 6.74109 11.6842C6.72384 11.2 7.05919 10.3811 7.61578 9.51269C7.8375 9.16899 8.07675 8.83693 8.3326 8.51782L8.45841 8.36032C8.85741 8.23657 9.25341 7.98532 9.84966 7.48497C10.5346 6.90888 11.2042 6.18372 11.3902 5.93388C11.6074 5.64222 11.6905 5.35216 11.6543 5.23788C11.6303 5.16691 11.5841 5.10559 11.5224 5.06304C11.46 5.01991 11.3856 4.999 11.3143 5.0065C11.2091 5.01719 10.9681 5.146 10.6478 5.37888C10.4212 5.54294 9.792 6.06204 9.51656 6.31207C9.01425 6.76675 8.68275 7.10004 8.26856 7.56485L8.13778 7.7111C8.03535 7.7326 7.92917 7.72819 7.82888 7.69825C7.75585 7.67716 7.69941 7.67454 7.65328 7.68447V7.68447ZM12.6562 8.30294C13.0046 8.0005 13.1515 7.87863 13.6301 7.49294C14.2081 7.02785 14.8441 6.58657 15.3102 6.32669C15.5387 6.19891 15.7526 6.09794 15.9192 6.06466C15.8808 6.14529 15.8217 6.24654 15.758 6.34291C15.4475 6.80819 14.9751 7.3376 14.2664 8.01475C14.0527 8.21997 12.985 9.11416 12.7188 9.31338C11.821 9.98219 10.9931 10.5153 10.1419 10.9704C10.0335 11.0283 9.90375 11.0951 9.77878 11.1582C10.6614 10.1598 11.6586 9.17022 12.6562 8.30294V8.30294ZM17.1151 9.98604C18.0145 9.44266 18.7825 9.12466 19.1468 9.1075C19.1385 9.13816 19.1256 9.17594 19.1111 9.20932C18.9691 9.54532 18.5697 10.0348 18.0002 10.5801C17.7656 10.804 16.8497 11.5681 16.423 11.8961C14.3793 13.4624 12.7019 14.5174 11.0708 15.2569C11.3567 14.8703 11.7582 14.3948 12.138 13.9962C12.8516 13.2471 13.7266 12.4542 14.6012 11.7648C15.5738 10.9973 16.3513 10.4478 17.1151 9.98604V9.98604ZM17.6579 13.9196C18.3257 13.3971 18.9226 12.9785 19.3632 12.7211C19.3222 12.7766 19.2803 12.8314 19.2376 12.8856C18.5345 13.7768 17.6938 14.576 16.6444 15.3482C16.0284 15.801 15.3904 16.2144 14.7701 16.5612C15.1273 16.1503 15.5797 15.7006 16.1955 15.1424C16.3558 14.9963 17.4454 14.0851 17.658 13.9196H17.6579Z" fill="#1B1A22"/>
<path d="M12.7184 15.8988C14.8698 15.8988 16.6138 14.1514 16.6138 11.9959C16.6138 9.84041 14.8698 8.09302 12.7184 8.09302C10.567 8.09302 8.823 9.84041 8.823 11.9959C8.823 14.1514 10.567 15.8988 12.7184 15.8988Z" fill="url(#paint0_radial_10_388)"/>
<path d="M20.1717 11.6989C20.2478 11.7291 20.2651 11.7383 20.3477 11.8367C20.4257 11.9296 20.4353 11.9516 20.4529 12.0325C20.4737 12.136 20.4602 12.2691 20.4111 12.397C20.2489 12.8239 19.4635 13.8204 18.6532 14.6189C17.7589 15.5011 16.4161 16.4891 15.1594 17.1902C14.8158 17.3816 14.259 17.6599 14.0011 17.7689L13.9917 17.7768L13.3467 18.0412C13.2818 18.0648 13.1913 18.0968 13.0981 18.1292L13.0358 18.1508C12.9114 18.1937 12.7913 18.2342 12.7298 18.2534C11.2567 18.7154 10.1588 18.7299 9.63675 18.3402L10.1228 17.7906C10.1688 17.8342 10.2902 17.8821 10.3889 17.9031C10.5068 17.9286 10.7452 17.9447 10.8945 17.9379C11.4359 17.9141 12.1608 17.7289 12.9926 17.406C13.1436 17.3467 13.2808 17.2931 13.2968 17.2843L14.77 16.565C15.3903 16.2183 16.0283 15.8049 16.6442 15.352C17.6937 14.5799 18.5344 13.7807 19.2375 12.8894C19.2802 12.8352 19.3221 12.7804 19.3631 12.725L20.1717 11.6989V11.6989ZM19.5543 8.52395C19.6917 8.60457 19.7854 8.71867 19.8342 8.85788C19.8806 8.99007 19.8863 9.14673 19.8439 9.32167C19.7853 9.56795 19.5281 10.0098 19.2106 10.4019C18.804 10.9044 18.375 11.3174 17.5773 11.9723C16.2383 13.0712 14.7431 14.1221 13.4439 14.8801C12.4821 15.4412 11.4552 15.9381 10.5477 16.2814L10.3793 16.3721L9.31744 16.6956C9.15591 16.7436 8.93935 16.8039 8.79825 16.8369C8.12878 16.9945 7.59863 17.0223 7.2375 16.9246C7.017 16.8648 6.83672 16.7587 6.69497 16.6068C6.55575 16.4577 6.45319 16.2634 6.38972 16.0214L7.12753 15.9069C7.15341 16.0201 7.18875 16.1049 7.24706 16.1649C7.30313 16.2225 7.37963 16.2545 7.48003 16.2741C7.64232 16.3059 7.9185 16.2932 8.20472 16.2453C8.54813 16.1869 9.23363 15.9931 9.67753 15.8262L11.0707 15.2608C12.7018 14.5213 14.3793 13.4663 16.4228 11.8999C16.8496 11.5719 17.7655 10.8079 18 10.5839C18.5696 10.0386 18.969 9.5492 19.1109 9.21329C19.1251 9.18013 19.1371 9.14605 19.1467 9.11129L19.5543 8.52395V8.52395ZM16.2712 5.29651C16.3463 5.31548 16.4169 5.34917 16.4789 5.39563C16.5409 5.44209 16.5931 5.5004 16.6324 5.56717C16.7388 5.74548 16.762 5.95642 16.6879 6.21357C16.6213 6.4442 16.4738 6.71579 16.239 7.03735C15.9725 7.40082 15.6275 7.78951 15.196 8.21129C14.6529 8.74229 13.8537 9.40145 13.1103 9.93254C11.7692 10.89 10.2569 11.7314 9.03891 12.1991L8.85478 12.2704L8.20622 12.4662L7.61719 12.5987C7.3155 12.6446 7.01653 12.6466 6.82125 12.6052C6.58313 12.5545 6.43538 12.4701 6.30919 12.3215C6.13847 12.1199 6.06638 11.8607 6.09535 11.4899L6.7411 11.6881C6.74447 11.7989 6.75422 11.8544 6.79632 11.9123C6.82013 11.9448 6.82669 11.9498 6.86757 11.9679C6.9451 12.003 7.12303 12.0218 7.25747 12.0137C7.34747 12.0083 7.49513 11.9828 7.64156 11.9537L7.69032 11.9439C7.88428 11.9046 8.06447 11.862 8.0911 11.8558L8.09438 11.8549L9.77869 11.1621L9.78244 11.1602C9.81431 11.1439 10.0412 11.028 10.1418 10.9743C10.993 10.5191 11.8208 9.98607 12.7187 9.31717C12.9849 9.11804 14.0525 8.22385 14.2663 8.01863C14.975 7.34148 15.4474 6.81207 15.7579 6.3467C15.8216 6.25032 15.8598 6.15038 15.9191 6.06845L16.2711 5.29651H16.2712Z" fill="#1B1A22"/>
<defs>
<radialGradient id="paint0_radial_10_388" cx="0" cy="0" r="1" gradientUnits="userSpaceOnUse" gradientTransform="translate(-1.70696 14.8294) rotate(54.603) scale(4.98094 4.9937)">
<stop stop-color="white" stop-opacity="0.904"/>
<stop offset="1" stop-color="#DC5A5A"/>
</radialGradient>
</defs>
</svg>
