<svg width="25" height="24" viewBox="0 0 25 24" fill="none" xmlns="http://www.w3.org/2000/svg">
<path d="M11.319 16.6095C11.3078 16.632 11.2965 16.65 11.319 16.6095V16.6095ZM20.661 13.347C19.9065 13.347 19.1625 13.5195 18.486 13.8532C18.2648 13.407 18.036 13.017 17.9985 12.7245C17.9535 12.3832 17.9048 12.1807 17.9573 11.7757C18.0098 11.3707 18.246 10.797 18.2423 10.7557C18.2385 10.7145 18.1898 10.5082 17.706 10.5045C17.2223 10.5007 16.806 10.5982 16.7573 10.7257C16.6717 10.9587 16.6052 11.1982 16.5585 11.442C16.4723 11.8807 15.5918 13.4482 15.093 14.2657C14.928 13.947 14.7893 13.6657 14.7593 13.4407C14.7143 13.0995 14.6655 12.897 14.718 12.492C14.7705 12.087 15.0068 11.5132 15.003 11.472C14.9993 11.4307 14.9505 11.2245 14.4675 11.2207C13.9845 11.217 13.5675 11.3145 13.5188 11.442C13.47 11.5695 13.4175 11.8695 13.32 12.1582C13.2225 12.447 12.0488 15.057 11.742 15.7357C11.5845 16.0807 11.4495 16.3582 11.352 16.5457C11.337 16.5757 11.3258 16.5945 11.3183 16.6095C11.3295 16.5907 11.337 16.572 11.337 16.5795C11.2545 16.7407 11.2058 16.8307 11.2058 16.8307V16.8345C11.142 16.9545 11.0708 17.0632 11.037 17.0632C11.0145 17.0632 10.9658 16.7482 11.0483 16.317C11.2245 15.4095 11.6408 13.9995 11.637 13.9507C11.6333 13.9245 11.7158 13.6807 11.3633 13.5495C11.022 13.4257 10.8983 13.632 10.8683 13.632C10.8383 13.632 10.8158 13.707 10.8158 13.707C10.8158 13.707 11.1945 12.117 10.0883 12.117C9.39826 12.117 8.43826 12.8745 7.96651 13.5607C7.67026 13.722 7.02901 14.0707 6.35401 14.442L5.57776 14.8695C5.55901 14.8507 5.54401 14.832 5.52526 14.8132C4.18276 13.3807 1.70476 12.3682 1.80976 10.4445C1.84726 9.74321 2.09101 7.90196 6.57526 5.66696C10.2503 3.83696 13.188 4.33946 13.6943 5.45696C14.4218 7.05071 12.123 10.017 8.30701 10.4445C6.85201 10.6057 6.08776 10.0432 5.89651 9.83321C5.69776 9.61196 5.66776 9.60071 5.59276 9.64196C5.46901 9.70946 5.54776 9.90446 5.59276 10.0207C5.70526 10.317 6.17401 10.842 6.97276 11.1045C7.67401 11.3332 9.37951 11.4607 11.4413 10.662C13.758 9.76946 15.5618 7.28321 15.0323 5.20196C14.4938 3.08696 10.9868 2.39321 7.67101 3.57071C5.69476 4.27196 3.55801 5.37446 2.02126 6.81071C0.195012 8.52071 -0.0967375 10.0095 0.0232625 10.632C0.450763 12.8407 3.49501 14.2807 4.71301 15.3457L4.54426 15.4395C3.93301 15.7432 1.61251 16.9582 1.03126 18.2407C0.375013 19.6957 1.14001 20.7382 1.64176 20.8807C3.20926 21.3157 4.81351 20.532 5.67601 19.2457C6.53851 17.9595 6.43351 16.2795 6.03601 15.5145C6.03226 15.5032 6.02476 15.4957 6.02101 15.4845C6.47099 15.2179 6.92479 14.9579 7.38226 14.7045C7.23226 15.1095 7.12351 15.597 7.06726 16.302C6.99976 17.127 7.34101 18.1957 7.78351 18.6157C7.97851 18.7995 8.21401 18.8032 8.36101 18.8032C8.87851 18.8032 9.11101 18.3757 9.36976 17.8657C9.68851 17.2432 9.96976 16.5195 9.96976 16.5195C9.96976 16.5195 9.61726 18.477 10.581 18.477C10.9335 18.477 11.286 18.0232 11.4435 17.7907V17.7945C11.4435 17.7945 11.451 17.7795 11.4698 17.7495C11.5073 17.6932 11.526 17.6595 11.526 17.6595V17.6482C11.6685 17.4045 11.9798 16.8457 12.4485 15.9232C13.056 14.7307 13.6365 13.242 13.6365 13.242C13.6928 13.569 13.7708 13.8922 13.869 14.2095C13.974 14.5657 14.1953 14.9557 14.3715 15.3345C14.229 15.5295 14.1428 15.642 14.1428 15.642C14.1428 15.645 14.1443 15.6472 14.1465 15.6495C14.034 15.7995 13.9065 15.9607 13.7753 16.1182C13.296 16.6882 12.7253 17.3407 12.6503 17.5282C12.5603 17.7495 12.5828 17.9145 12.7553 18.042C12.8828 18.1395 13.1078 18.1545 13.344 18.1357C13.7753 18.1057 14.079 18.0007 14.2253 17.9332C14.495 17.8366 14.75 17.7028 14.9828 17.5357C15.4515 17.1907 15.7365 16.6957 15.7103 16.0432C15.6953 15.6832 15.579 15.3232 15.4365 14.9857C15.4778 14.9257 15.5228 14.862 15.564 14.7982C16.052 14.0701 16.4917 13.3107 16.8803 12.525C16.9365 12.852 17.0138 13.1752 17.1128 13.4925C17.2028 13.7962 17.379 14.13 17.5403 14.4562C16.8428 15.0225 16.4115 15.6787 16.2623 16.11C15.9848 16.9087 16.2023 17.2687 16.611 17.3512C16.7948 17.3887 17.0573 17.3025 17.2523 17.22C17.5418 17.1232 17.8148 16.983 18.0615 16.8037C18.5303 16.4587 18.984 15.975 18.9533 15.3187C18.942 15.0225 18.8595 14.7262 18.7508 14.4412C19.3395 14.1937 20.1045 14.0587 21.0795 14.1712C23.1675 14.415 23.5763 15.72 23.4975 16.2637C23.4188 16.8075 22.98 17.1112 22.8338 17.2012C22.6875 17.2912 22.6425 17.325 22.6538 17.3925C22.6725 17.49 22.74 17.4862 22.8638 17.4637C23.0363 17.4337 23.9588 17.0212 24 16.0125C24.06 14.7375 22.8338 13.335 20.6625 13.3462L20.661 13.347ZM4.56676 18.7732C3.87676 19.527 2.91001 19.812 2.49376 19.572C2.04751 19.3125 2.22376 18.2032 3.07426 17.4C3.59176 16.9125 4.25926 16.4625 4.70176 16.185C4.80301 16.125 4.94926 16.035 5.12926 15.9262C5.14389 15.9168 5.1589 15.9081 5.17426 15.9C5.20801 15.8775 5.24551 15.8587 5.28301 15.8362C5.59351 16.9762 5.29426 17.9812 4.56676 18.7725V18.7732ZM9.60526 15.3457C9.36526 15.9345 8.85976 17.4345 8.55151 17.3557C8.28901 17.2882 8.12776 16.1445 8.49901 15.0195C8.68651 14.4532 9.08401 13.7782 9.32026 13.5157C9.69901 13.092 10.1153 12.957 10.2128 13.1257C10.344 13.347 9.75526 14.9782 9.60526 15.3457ZM13.7678 17.3332C13.6665 17.3857 13.5728 17.4195 13.5278 17.3932C13.494 17.3745 13.569 17.3032 13.569 17.3032C13.569 17.3032 14.0903 16.7445 14.2965 16.4895C14.4165 16.3395 14.5553 16.1632 14.7053 15.9682C14.7053 15.987 14.709 16.0057 14.709 16.0282C14.7045 16.6995 14.0595 17.1532 13.767 17.3332H13.7678ZM16.9778 16.602C16.9028 16.5495 16.914 16.3732 17.1653 15.8257C17.2628 15.612 17.4878 15.252 17.8778 14.907C17.922 15.0375 17.946 15.174 17.949 15.312C17.9453 16.1557 17.3415 16.4707 16.9778 16.602V16.602Z" fill="#EEEEEE"/>
</svg>
