<svg width="24" height="24" viewBox="0 0 24 24" fill="none" xmlns="http://www.w3.org/2000/svg">
<path d="M6.01837 11.5239C5.92462 12.7043 6.96164 13.5738 7.66936 13.5738C8.37806 13.5407 11.1382 11.2148 11.1382 11.2148C12.4364 9.57295 12.442 8.84292 12.442 8.26913C12.3337 5.73586 7.71839 9.59428 6.01837 11.5239V11.5239ZM17.4355 10.5434C18.062 9.2175 17.2191 7.74483 15.3857 9.03834C13.9289 9.96431 12.0427 11.8692 11.1401 12.6149C10.7214 13.4606 11.7827 15.7814 13.4646 14.556C15.4526 13.1117 16.9043 11.7536 17.4355 10.5434V10.5434ZM19.1417 2.52253L19.5455 0H24V4.60472L22.3675 4.62422L20.4018 11.2821C20.5241 13.6318 19.3326 13.6701 19.1804 14.7482C18.7978 17.4581 15.7674 19.6754 14.6088 19.6754C13.836 19.653 13.2712 18.7673 13.0814 17.9955C15.2602 15.5857 18.19 13.6919 18.19 13.6919C18.373 12.4245 17.9709 12.021 19.3231 10.9411L20.6135 4.1565C19.5115 3.42877 18.9973 3.44006 19.1417 2.52253V2.52253ZM10.447 13.7585C11.5768 16.0349 13.2092 16.0943 15.7402 13.196C15.8003 13.464 15.8662 13.7447 15.7453 14.4188C10.5967 19.0237 5.74753 23.5055 4.27148 24H0V22.8544C0.694687 21.891 6.396 17.1885 10.447 13.7585V13.7585ZM18.0562 18.1661C17.8244 20.1366 16.0279 21.8608 13.6273 24H6.01931L12.4331 18.5974C13.5403 21.1172 15.5069 20.7522 18.0562 18.1661H18.0562ZM9.05906 13.6936L0 21.415V16.4055L5.33109 12.0656C5.61628 13.681 7.36336 15.1034 9.05906 13.6937V13.6936Z" fill="#EEEEEE"/>
</svg>
