<svg width="24" height="24" viewBox="0 0 24 24" fill="none" xmlns="http://www.w3.org/2000/svg">
<path d="M0.0120999 0.332238C-0.0372901 0.132269 0.148131 -0.0462948 0.346061 0.0107863L6.11255 1.67096C6.1643 1.67084 6.21503 1.68546 6.25877 1.71312L17.6314 4.98731C17.6785 4.98824 17.725 5.00167 17.7654 5.02586L23.5323 6.68621C23.7304 6.7433 23.7924 6.99349 23.6438 7.13638L6.24144 23.8761C6.0929 24.0189 5.8454 23.9474 5.79601 23.7472L2.90934 12.0612C2.90546 12.0492 2.90243 12.0369 2.90025 12.0245L0.0120999 0.332238ZM4.95165 18.0969L6.20447 23.1687L9.9772 19.5395L4.95165 18.0969V18.0969ZM8.8378 14.086L5.18507 17.6068L10.0511 19.0038L8.8378 14.086ZM9.37998 14.0484L10.5894 18.9506L14.2321 15.4466L9.37998 14.0484V14.0484ZM3.53565 12.3643L4.75039 17.2823L8.39876 13.7657L3.53565 12.3643V12.3643ZM13.1453 9.92927L9.434 13.5067L14.3798 14.9318L13.1453 9.92927ZM13.6653 9.80205L14.8998 14.8044L18.6213 11.2247L13.6653 9.80205ZM7.40299 8.26929L3.68373 11.8498L8.63857 13.2775L7.40299 8.26929V8.26929ZM7.92098 8.13428L9.13432 13.052L12.787 9.5311L7.92107 8.13428H7.92098ZM2.07832 6.46419L3.31307 11.4635L7.02964 7.88557L2.07823 6.46419H2.07832ZM17.4784 5.77014L13.8256 9.29091L18.6916 10.6879L17.4784 5.77014V5.77014ZM18.0003 5.6506L19.2309 10.6383L22.9382 7.07225L18.0003 5.6506V5.6506ZM11.7121 4.12109L8.07591 7.62166L12.919 9.0119L11.7122 4.12109H11.7121ZM12.2312 3.9896L13.4462 8.91321L17.0999 5.39133L12.2312 3.9896ZM5.96586 2.45378L2.31313 5.97465L7.17911 7.37147L5.96586 2.45378ZM6.4883 2.33619L7.69859 7.24155L11.3424 3.73375L6.4883 2.33619V2.33619ZM0.642864 0.653319L1.87743 5.65116L5.58603 2.07645L0.642864 0.653319Z" fill="#EEEEEE"/>
</svg>
