<svg width="24" height="24" viewBox="0 0 24 24" fill="none" xmlns="http://www.w3.org/2000/svg">
<path d="M21.0158 18.1207L12.3518 22.9995V19.1985L17.7503 16.2412L21.0158 18.1207ZM21.6098 17.586V7.37923L18.438 9.20323V15.762L21.6098 17.586ZM2.92579 18.1207L11.5898 22.9995V19.1985L6.19129 16.2412L2.92579 18.1207ZM2.33179 17.586V7.37923L5.50354 9.20323V15.762L2.33179 17.586ZM2.70304 6.71848L11.5898 1.71448V5.39023L5.85529 8.53123L2.70304 6.71848ZM21.2385 6.71848L12.3518 1.71448V5.39023L18.0863 8.53123L21.2385 6.71848ZM11.5898 18.336L6.26554 15.4177V9.64048L11.5898 12.7027V18.336ZM12.3518 18.336L17.676 15.4177V9.64048L12.3518 12.7027V18.336ZM6.62479 8.97298L11.9723 6.04723L17.3198 8.97298L11.9723 12.0472L6.62479 8.97298Z" fill="#EEEEEE"/>
</svg>
