<svg width="115" height="132" viewBox="0 0 115 132" fill="none" xmlns="http://www.w3.org/2000/svg">
<path fill-rule="evenodd" clip-rule="evenodd" d="M114.315 33L57.1577 0L0 33V99L57.1577 132L114.315 99V33ZM42.7977 53.85L55.3977 42.86C59.8777 45.2867 62.3977 48.95 62.9577 53.85L76.0477 42.86C79.4077 45.4267 81.531 47.69 82.4177 49.65C83.3977 51.7033 83.8877 54.9467 83.8877 59.38V85.07C77.3543 87.17 72.431 89.8767 69.1177 93.19C64.5443 90.0633 60.4377 88.5 56.7977 88.5C52.971 88.5 49.7043 90.0633 46.9977 93.19C42.1443 88.85 36.241 86.4233 29.2877 85.91V85C30.781 84.2067 31.551 83.81 31.5977 83.81C31.9243 83.6233 32.2277 83.32 32.5077 82.9C32.9277 82.0133 33.1377 80.1 33.1377 77.16V58.89C33.1377 55.6233 32.7177 53.36 31.8777 52.1C31.691 51.8667 31.5043 51.61 31.3177 51.33C31.131 51.0033 30.9443 50.6533 30.7577 50.28C28.611 47.5733 27.5377 45.03 27.5377 42.65C27.5377 38.2167 30.9677 34.0633 37.8277 30.19L38.8077 31.66C38.6677 31.7067 38.411 31.9167 38.0377 32.29C35.5177 34.25 34.2577 36.1633 34.2577 38.03C34.2577 39.8967 35.3077 41.7633 37.4077 43.63C40.861 46.8033 42.6577 50.21 42.7977 53.85ZM42.7977 81.36L53.4377 85.7V59.73C53.4377 57.07 53.2743 55.32 52.9477 54.48C52.5277 53.08 51.3843 51.68 49.5177 50.28L42.7977 56.3V81.36ZM63.3077 80.66L74.1577 85.07V60.15C74.1577 57.6767 73.971 55.8333 73.5977 54.62C73.0843 53.4067 71.9177 51.96 70.0977 50.28L63.3077 56.23V80.66Z" fill="#D55A33"/>
</svg>
